<svg width="64" height="64" viewBox="0 0 64 64" xmlns="http://www.w3.org/2000/svg" role="img" aria-label="Easy Doc">
  <rect width="64" height="64" rx="16" fill="#dd0016"/>
  <path d="M17 27.4c0-3.55 2.55-6.4 6.25-6.4h8.65v5.25h-8.3c-.85 0-1.45.5-1.45 1.25s.6 1.25 1.45 1.25h8.3v4.95h-8.3c-.85 0-1.45.5-1.45 1.25s.6 1.25 1.45 1.25h8.3V41.5h-8.65C19.55 41.5 17 38.65 17 35.1c0-1.9.78-3.42 2.05-4.35C17.78 29.82 17 28.95 17 27.4Z" fill="#fff"/>
  <path d="M35.7 21h6.6C47.35 21 51 24.78 51 31.25S47.35 41.5 42.3 41.5h-6.6V21Zm6.25 15.1c2.2 0 3.78-1.72 3.78-4.85s-1.58-4.85-3.78-4.85h-1.2v9.7h1.2Z" fill="#fff"/>
</svg>
